PathFileType	4	(X/Y/Z)	./resultDataOpenSim/trcMotMarkerGrf/sub10/qtm-13-05.trc
DataRate	CameraRate	NumFrames	NumMarkers	Units	OrigDataRate	OrigDataStartFrame	OrigNumFrames
250.000000	250.000000	13	24	m	250.000000	430	491
Frame#	Time	L.Toe.Tip			R.Toe.Tip			L.Ankle.Lat			R.Ankle.Lat			L.Ankle.Med			R.Ankle.Med			L.Heel			R.Heel			L.Knee.Lat			R.Knee.Lat			L.Knee.Med			R.Knee.Med			L.Thigh.Upper			R.Thigh.Upper			L.ASIS			R.ASIS			V.Sacral			L.Acromium			R.Acromium			C7			L.Elbow			R.Elbow			L.Wrist.Lat			R.Wrist.Lat
		X1	Y1	Z1	X2	Y2	Z2	X3	Y3	Z3	X4	Y4	Z4	X5	Y5	Z5	X6	Y6	Z6	X7	Y7	Z7	X8	Y8	Z8	X9	Y9	Z9	X10	Y10	Z10	X11	Y11	Z11	X12	Y12	Z12	X13	Y13	Z13	X14	Y14	Z14	X15	Y15	Z15	X16	Y16	Z16	X17	Y17	Z17	X18	Y18	Z18	X19	Y19	Z19	X20	Y20	Z20	X21	Y21	Z21	X22	Y22	Z22	X23	Y23	Z23	X24	Y24	Z24

430	1.716	1.7053497	0.07732221	-0.19613268	0.88914213	0.038171204	0.019637005	1.5731368	0.06916512	-0.23145809	0.77428117	0.11564647	0.055795575	1.5749254	0.091640733	-0.14810598	0.80381032	0.12646953	-0.028580387	1.5163966	0.024369042	-0.1912061	0.71748945	0.115392	0.0098396485	1.4640192	0.44275667	-0.23375875	1.0267421	0.43279322	0.071680042	1.479285	0.41681796	-0.11545357	1.0549541	0.41772331	-0.050937237	1.2994275	0.79290865	-0.26966565	1.1702312	0.81286053	0.10224048	1.3281205	0.89945002	-0.18622063	1.2710618	0.89481027	0.060134179	1.1046146	0.90468277	-0.12336546	1.2204378	1.3596817	-0.23264219	1.2141275	1.3609155	0.089511966	1.1266593	1.3838758	-0.077440369	1.0605266	1.0623403	-0.28653291	1.2704096	1.0033811	0.12312653	1.092299	0.83446802	-0.35769198	1.5082325	0.9363685	0.090564103
431	1.72	1.7077403	0.0731018	-0.19525168	0.88993553	0.038181478	0.019568772	1.5754639	0.068656694	-0.23153783	0.77723809	0.11872702	0.055955283	1.5773847	0.091208544	-0.14807678	0.80718246	0.12883538	-0.028272277	1.5173447	0.025393423	-0.19147393	0.72074494	0.11963458	0.0098992987	1.4704901	0.44312473	-0.23416416	1.0336756	0.4326934	0.070933622	1.4840061	0.41698515	-0.11585383	1.0618909	0.41722572	-0.051478883	1.3068296	0.79302207	-0.27069757	1.1780546	0.81209411	0.1013785	1.3345323	0.89980662	-0.1872773	1.278673	0.89439971	0.058875566	1.1117895	0.90473324	-0.12445594	1.2265406	1.3597174	-0.23417259	1.2204584	1.3610635	0.088078475	1.1327139	1.3837083	-0.078947997	1.0671863	1.062063	-0.28760234	1.275456	1.0030527	0.11946285	1.0990073	0.83416091	-0.35900179	1.5134711	0.93569196	0.089790844
432	1.724	1.7099012	0.069626326	-0.19434912	0.89075858	0.038177069	0.019482565	1.5776245	0.068262591	-0.23160711	0.78038409	0.12183509	0.056098078	1.5797567	0.09088127	-0.14803709	0.81079397	0.13117986	-0.027958077	1.5183196	0.026328003	-0.19170979	0.7242456	0.12392521	0.0099137787	1.4772351	0.44380332	-0.23449755	1.0410643	0.43247715	0.070175688	1.4888853	0.41742843	-0.11624179	1.0690312	0.41669225	-0.051995422	1.3142575	0.79328081	-0.27178482	1.1861927	0.81130564	0.10048805	1.3409721	0.9001565	-0.18833662	1.2863441	0.893996	0.057545203	1.118189	0.90504818	-0.12529761	1.2326555	1.3598225	-0.23570984	1.2268341	1.3613057	0.086659199	1.1388284	1.3836271	-0.080483293	1.0739076	1.0618182	-0.28871611	1.2804432	1.0027969	0.11579897	1.1058454	0.83389589	-0.36031132	1.5185673	0.93491648	0.089092561
433	1.728	1.7118467	0.066533474	-0.19361469	0.89155401	0.038127732	0.019324442	1.5796322	0.067979344	-0.23164832	0.78372822	0.1249461	0.056223358	1.5822166	0.090714215	-0.14799847	0.81466429	0.13349228	-0.027649185	1.5192814	0.0271828	-0.19184126	0.72798197	0.12826082	0.0098746458	1.4842495	0.44478875	-0.23472991	1.0488298	0.4321766	0.069418862	1.4942801	0.41812779	-0.11653552	1.0763647	0.41612595	-0.052481796	1.3216792	0.79372563	-0.27292894	1.1945785	0.81050523	0.099597001	1.3474427	0.90050794	-0.18939831	1.2940724	0.89359304	0.056125661	1.1243836	0.90558941	-0.12623657	1.2387731	1.3599879	-0.23724781	1.2332588	1.3616273	0.08524657	1.1450183	1.3836284	-0.082011362	1.0806934	1.0616104	-0.28988101	1.2853578	1.0026289	0.11215016	1.1128126	0.83367672	-0.361617	1.5235322	0.93405199	0.088457242
434	1.732	1.7135781	0.063512293	-0.19311434	0.89230393	0.038023447	0.01906571	1.5814847	0.067774175	-0.23166089	0.7873057	0.12804836	0.05632669	1.5847328	0.090685556	-0.14797475	0.81881611	0.13576019	-0.027350594	1.5201955	0.02797386	-0.19185168	0.73197993	0.13262512	0.0097694392	1.4914564	0.44601189	-0.23486768	1.0567139	0.43188574	0.068683085	1.5000944	0.41902787	-0.11670101	1.0838801	0.41552225	-0.052950664	1.3290572	0.79438338	-0.27413044	1.2030136	0.80972439	0.098772865	1.3539417	0.90087529	-0.19045689	1.3018398	0.89319486	0.054614892	1.1306448	0.90631814	-0.12744006	1.2448757	1.3602106	-0.23878402	1.2397339	1.3620214	0.083829147	1.1512821	1.3836944	-0.083502807	1.0875444	1.0614452	-0.29109622	1.290223	1.0025486	0.10851848	1.1199049	0.83350007	-0.36291695	1.5283678	0.93310514	0.087881227
435	1.736	1.7151322	0.060441138	-0.19273851	0.89304736	0.037879094	0.018740545	1.5831784	0.067592204	-0.23165472	0.79115229	0.13113775	0.056386766	1.5870768	0.090688271	-0.147959	0.82326644	0.13796144	-0.027058461	1.5210461	0.028715838	-0.19180922	0.73629594	0.13698813	0.0095698271	1.4987429	0.4473549	-0.23494531	1.0645374	0.43166051	0.06797884	1.5060823	0.42007188	-0.11675339	1.0915678	0.41485751	-0.053432068	1.3363561	0.79526379	-0.27538141	1.2113821	0.80898737	0.098066271	1.3604795	0.90127233	-0.1915062	1.3096229	0.89281251	0.053029325	1.1370989	0.90713343	-0.12872072	1.250946	1.360488	-0.24031683	1.246252	1.3624817	0.082400498	1.1576102	1.383806	-0.084947954	1.0944559	1.0613168	-0.2923469	1.2951262	1.0025323	0.10486978	1.1271179	0.83335551	-0.36421029	1.5330692	0.9320783	0.087360528
436	1.74	1.7165777	0.057434654	-0.19231978	0.89384115	0.037717214	0.018410627	1.5847339	0.06739885	-0.23163012	0.79528089	0.13420835	0.056384206	1.5890972	0.09063247	-0.14791697	0.82802259	0.14006394	-0.026759254	1.5218387	0.029425169	-0.19185727	0.74096636	0.14133727	0.009227516	1.5059984	0.44869717	-0.23500047	1.0723179	0.43148082	0.067306092	1.5120808	0.42120855	-0.1167353	1.0994245	0.4140914	-0.05397451	1.343544	0.79635297	-0.27666648	1.2196735	0.80827013	0.097447269	1.3670791	0.90171171	-0.19253732	1.317424	0.89244715	0.051369285	1.1438465	0.90788055	-0.1296619	1.2569783	1.360813	-0.24184406	1.2528109	1.3629912	0.080956231	1.1639906	1.3839534	-0.08635664	1.1014156	1.0612061	-0.29361309	1.3001649	1.0025467	0.10115503	1.1344527	0.8332297	-0.36549921	1.5376318	0.93097081	0.086888794
437	1.744	1.7179979	0.054741107	-0.19178379	0.89471527	0.037556257	0.018102019	1.5861911	0.067197861	-0.23157073	0.79967999	0.13724673	0.056323209	1.5908333	0.090504498	-0.14780718	0.83308268	0.14203783	-0.026438214	1.5225864	0.030139383	-0.19215212	0.74598086	0.14568059	0.0086937164	1.513133	0.44995338	-0.23505913	1.0801538	0.43130114	0.066668365	1.5180309	0.42239095	-0.11669186	1.1074535	0.4131903	-0.054616714	1.3505907	0.79761421	-0.27796643	1.2278399	0.80749938	0.096819242	1.3737564	0.90220753	-0.19352981	1.3252715	0.89208321	0.049609547	1.1508961	0.908472	-0.13003785	1.2629783	1.3611731	-0.24336423	1.2594227	1.3635249	0.07949128	1.1704068	1.384135	-0.087743174	1.1084084	1.0610948	-0.29488003	1.3052779	1.0025881	0.097410306	1.1419114	0.83311386	-0.36678808	1.5420605	0.92978135	0.08645802
438	1.748	1.7194691	0.052521303	-0.19120325	0.89567397	0.037411072	0.01780098	1.587573	0.067001594	-0.23146828	0.8043299	0.14023492	0.056223699	1.5923823	0.090325732	-0.14760357	0.83843775	0.14387474	-0.026096946	1.5232923	0.030899788	-0.19275198	0.7513157	0.15000821	0.0079736887	1.5200845	0.45107743	-0.23513626	1.0881258	0.43109105	0.066071602	1.5239273	0.42358874	-0.11665606	1.1156625	0.41215632	-0.055308475	1.3574714	0.7989982	-0.27926251	1.2358176	0.80661427	0.096106504	1.380506	0.90278016	-0.19445727	1.3331717	0.89171132	0.047754229	1.1581196	0.90893936	-0.13002114	1.2689534	1.3615574	-0.2448788	1.266101	1.364058	0.078004055	1.1768398	1.3843547	-0.08911121	1.1154243	1.0609728	-0.29613996	1.3101222	1.0027103	0.09384438	1.1494914	0.83300412	-0.36808349	1.5463705	0.92851111	0.086058656
439	1.752	1.7210124	0.050714764	-0.19073151	0.89672527	0.037290525	0.017505997	1.5888659	0.066795513	-0.23135126	0.8092218	0.14315947	0.056103867	1.5937979	0.090108168	-0.14730494	0.844079	0.14559066	-0.02575675	1.5239526	0.031683381	-0.19351134	0.75698024	0.15427618	0.0071459861	1.5268179	0.45204418	-0.23524151	1.0962817	0.430839	0.065519928	1.5297746	0.42479547	-0.11664813	1.1240607	0.41102261	-0.055898548	1.3641766	0.80045242	-0.28054294	1.243624	0.80562384	0.095307025	1.3873081	0.90345706	-0.19531611	1.3410805	0.89134291	0.045868211	1.1653396	0.90935951	-0.12995613	1.2749097	1.3619617	-0.24638741	1.2728456	1.3645748	0.076499352	1.1832732	1.384618	-0.090454629	1.1224584	1.0608349	-0.29739079	1.3142907	1.0029805	0.090721558	1.1571897	0.83289484	-0.36939085	1.5505776	0.92716533	0.085680192
440	1.756	1.7225678	0.049149562	-0.19045281	0.89789311	0.037189576	0.017249898	1.5900393	0.06655283	-0.23125092	0.81436543	0.14601355	0.055975622	1.5950877	0.089855277	-0.14693352	0.8500045	0.14720288	-0.025437833	1.5245699	0.032386619	-0.19413812	0.76301316	0.15843974	0.0062969587	1.5333159	0.45283648	-0.23538135	1.104633	0.43054204	0.065019617	1.5355716	0.42601099	-0.1166828	1.1326566	0.40981411	-0.056263011	1.370716	0.80192641	-0.28180674	1.2513278	0.80458185	0.094458003	1.3941406	0.90425691	-0.19614028	1.3489339	0.89098885	0.044017624	1.1724401	0.90978215	-0.13005893	1.2808548	1.3623869	-0.24788398	1.2796335	1.3650716	0.07498764	1.1896956	1.3849224	-0.091767327	1.129509	1.0606797	-0.29863414	1.3177845	1.0033929	0.08806394	1.1650106	0.8327771	-0.37070364	1.5546906	0.92575023	0.085313149
441	1.76	1.7240325	0.047728671	-0.19029445	0.89920315	0.037087506	0.017065355	1.5910707	0.066286863	-0.23113664	0.81978108	0.14879318	0.05584859	1.5962293	0.089576877	-0.14652517	0.85620626	0.14870911	-0.025141183	1.5251418	0.03291591	-0.19443913	0.76942153	0.16248637	0.005478353	1.5395657	0.45344405	-0.23555935	1.1131526	0.43019476	0.064575655	1.5413075	0.42722122	-0.11677477	1.1414573	0.40852545	-0.056402803	1.3771123	0.80337634	-0.28305892	1.2589766	0.80352079	0.093585827	1.4009849	0.9051704	-0.19697311	1.3566929	0.8906424	0.042210886	1.1794223	0.9101926	-0.13029306	1.2867953	1.3628319	-0.24936663	1.2864264	1.3655492	0.073481255	1.1960961	1.3852487	-0.093046683	1.1365786	1.0605109	-0.29987517	1.3211064	1.0038571	0.085566855	1.1729705	0.83264196	-0.37200661	1.5587115	0.92426683	0.084951031
442	1.764	1.7253211	0.046461686	-0.19010508	0.90066449	0.036958937	0.016957019	1.591942	0.066058713	-0.23094068	0.82548547	0.1514981	0.055737654	1.5971935	0.08929126	-0.14611434	0.86265085	0.1500925	-0.024850431	1.5256455	0.033268154	-0.19446434	0.77614323	0.16643365	0.0047397965	1.5455561	0.45386319	-0.23577806	1.1217889	0.42978796	0.064179213	1.5469679	0.42839866	-0.11693587	1.150465	0.40713512	-0.056392797	1.3833885	0.80476966	-0.28430227	1.2665741	0.80244225	0.092698847	1.4078243	0.90616461	-0.19783575	1.3643476	0.89029064	0.040420149	1.1863757	0.91051565	-0.13043253	1.2927296	1.3632914	-0.2508451	1.2931902	1.3660069	0.071986125	1.202461	1.3855646	-0.094293982	1.1436671	1.0603294	-0.30112325	1.3247564	1.0042871	0.082913837	1.1810858	0.83248274	-0.37329569	1.5626382	0.92271049	0.084590016
